<svg data-v-0dd9719b="" version="1.0" xmlns="http://www.w3.org/2000/svg" xmlns:xlink="http://www.w3.org/1999/xlink" width="100%" height="100%" viewBox="0 0 340.000000 250.000000" preserveAspectRatio="xMidYMid meet" color-interpolation-filters="sRGB" style="margin: auto;"> <rect data-v-0dd9719b="" x="0" y="0" width="100%" height="100%" fill="#ffffff" fill-opacity="1" class="background"></rect> <rect data-v-0dd9719b="" x="0" y="0" width="100%" height="100%" fill="url(#watermark)" fill-opacity="1" class="watermarklayer"></rect> <g data-v-0dd9719b="" fill="#333333" class="icon-text-wrapper icon-svg-group iconsvg" transform="translate(56.035003662109375,100)"><g class="iconsvg-imagesvg" transform="translate(0,0)"><g><rect fill="#333333" fill-opacity="0" stroke-width="2" x="0" y="0" width="50" height="50" class="image-rect"></rect> <svg x="0" y="0" width="50" height="50" filtersec="colorsb8565337721" class="image-svg-svg primary" style="overflow: visible;"><svg xmlns="http://www.w3.org/2000/svg" viewBox="0 0 81.5 81.5"><g><g><path fill="#805ff3" d="M0 36.6V0h81.5L45 36.6H0z"></path><path fill="#fd9a96" d="M0 81.5L36.8 45h44.7v36.5H0z"></path><path fill="#7ed8ff" d="M81.5 0v18.5l-62.8 63H0V54.1L54.1 0h27.4z"></path></g></g></svg></svg> <!----></g></g> <g transform="translate(54,3.9849987030029297)"><g data-gra="path-name" fill-rule="" class="tp-name iconsvg-namesvg"><g transform="scale(1)"><g><path d="M41.63-13.81L41.63-21.11 14.71-21.11 14.71-36.13 7.29-36.31 7.29-21.11 2.83-21.11 2.83-13.81 7.29-13.81 7.29-6.3C7.29-3.92 6.66-3.06 5.13-1.75L7.65 5.31C9.49 4.72 11.25 4.23 13 3.82 15.84 3.1 20.07 2.25 22.99 1.67L23.04-6.21C20.93-5.63 16.92-4.81 14.71-4.32L14.71-13.81 19.48-13.81C23.54-4.72 29.47 0.54 38.66 4.59L42.88-2.34C35.23-5.31 30.33-8.19 27.36-13.81ZM36.27-35.82C30.29-33.34 23.22-31 16.16-29.07L18.86-21.91C25.74-23.85 33.57-26.5 39.51-28.66ZM88.29-9.81C84.15-11.65 80.46-13.9 78.34-16.2L86.31-16.2 86.31-21.42 66.55-21.42 67.23-22.95 84.06-22.95 84.06-27.54 68.76-27.54 69.16-29.16 85.36-29.16 85.36-34.34 70.16-34.34C70.29-35.19 70.38-35.91 70.42-36.45L62.5-36.63C62.5-36.09 62.41-35.19 62.28-34.34L48.06-34.34 48.06-29.16 61.11-29.16 60.61-27.54 49.41-27.54 49.41-22.95 58.95-22.95C58.72-22.41 58.45-21.91 58.23-21.42L47.11-21.42 47.11-16.2 54.41-16.2C52.11-13.86 49.18-11.83 45.27-9.67L49.09-3.01C50.58-4.05 51.97-5.04 53.28-6.08L53.28 4.5 80.19 4.5 80.19-6.03C81.63-5 83.11-4 84.64-3.06ZM70.16-16.2C70.6-15.52 71.1-14.85 71.64-14.17L61.83-14.17C62.41-14.85 62.95-15.52 63.45-16.2ZM73.17-7.15L60.3-7.15 60.3-9.54 73.17-9.54ZM60.3-0.54L60.3-2.92 73.17-2.92 73.17-0.54ZM107.37-14.22C106.16-16.02 103.77-18.81 102.55-20.16L101.47-19.26 101.47-23.22 103.86-23.22 103.86-30.06 101.47-30.06 101.47-36.54 95.08-36.72 95.08-30.06 91.48-30.06 91.48-23.22 94.95-23.22C94.23-20.65 91.98-16.88 90.04-13.72L91.21-3.65C91.98-4.77 93.64-7.65 95.08-10.57L95.08 4.95 101.47 4.95 101.47-13.46C102.33-12.06 103.05-10.8 103.54-9.9ZM132.3-29.7L129.73-29.7 129.73-36.18 123.25-36.36 123.25-29.7 117.9-29.7 117.9-22.18 123.25-22.18 123.25-9.95C122.76-13 121.63-17.5 120.91-19.89L115.88-18.81C116.73-16.16 117.94-10.44 118.44-7.25L123.25-8.64 123.25-5.8C123.25-3.69 122.63-3.24 120.69-3.01L118.13-2.75 120.15 5 123.25 4.72C128.25 4.23 129.73 3.42 129.73-1.13L129.73-22.18 132.3-22.18ZM118.48-5.22C117.54-7.38 115.96-10.35 114.3-13.41 115.51-17.37 116.14-21.42 116.55-25.96L116.55-33.3 105.44-33.3 105.44-26.37 110.97-26.37C110.74-24.52 110.43-22.68 110.02-20.93 109.17-22.23 108.54-23.45 107.86-24.39L103.59-21.87C104.71-19.93 106.33-17.05 107.95-13.95 106.38-9.63 104.26-5.8 101.61-2.21L106.83 2.21C108.85-0.81 110.47-3.73 111.73-6.57 112.59-4.81 113.35-3.28 113.89-2.02ZM170.82-12.91C175-12.91 175.23-13.86 176.44-18.54 176.62-19.21 176.71-19.71 176.76-20.02L172.3-22.5C172.26-22.14 172.21-21.82 172.08-21.33 171.58-19.75 171.36-19.62 170.59-19.62L169.56-19.62C168.61-19.62 168.25-19.71 168.25-21.55L168.25-23.58C171.13-25.15 173.7-26.86 176.04-28.62L173.25-34.47C171.67-33.25 170.01-32.13 168.25-31.05L168.25-36.54 162.27-36.72 162.27-27.86C161.32-27.36 160.38-27 159.43-26.59L159.43-30.2C160.38-32.13 161.1-33.93 161.59-35.68L155.61-36.67C154.57-34.11 153.27-31.45 151.83-28.98L149.89-30.06C149.4-28.8 148.63-26.91 147.73-24.97L147.73-36.54 141.66-36.72 141.61-19.26 141.48-18.77C140.98-22.36 140.49-26.59 139.99-29.25L135.31-28.66C135.9-24.7 136.62-18.45 136.98-14.45L141.12-14.98C140.35-9.22 138.19-4.32 135 1.3L141.21 4.95C142.83 1.53 144.13-1.4 145.08-4.46L148.72 1.44 152.68-2.07 159.3-2.07 159.3 5.08 166.05 5.08 166.05-2.07 176.44-2.07 176.44-9.31 166.05-9.31 166.05-12.11 159.3-12.11 159.3-9.31 151.47-9.31 151.47-6.12C149.89-8.32 148.23-10.84 147.01-12.46 147.33-14.22 147.46-16.06 147.6-18.04L148.86-17.19C149.44-18.27 150.16-19.75 150.93-21.38L151.74-18.45C152.32-19.17 152.91-19.89 153.45-20.61L153.45-12.33 159.43-12.33 159.43-19.3C160.38-19.71 161.32-20.07 162.27-20.56L162.27-18.86C162.27-14.35 163.57-13.09 166.68-12.96Z" transform="translate(-2.8299999237060547, 36.720001220703125)"></path></g> <!----> <!----> <!----> <!----> <!----> <!----> <!----></g></g> <!----></g></g><defs v-gra="od"></defs></svg>